<svg width="59" height="59" viewBox="0 0 59 59" fill="none" xmlns="http://www.w3.org/2000/svg">
<path d="M30.1406 11.671C29.9691 11.5069 29.7408 11.4153 29.5034 11.4153C29.266 11.4153 29.0377 11.5069 28.8661 11.671L7.65149 31.9372C7.56139 32.0234 7.48972 32.127 7.44079 32.2417C7.39187 32.3563 7.36672 32.4798 7.36686 32.6044L7.3634 51.625C7.3634 52.603 7.75191 53.5409 8.44345 54.2325C9.13499 54.924 10.0729 55.3125 11.0509 55.3125H22.1249C22.6139 55.3125 23.0829 55.1183 23.4287 54.7725C23.7744 54.4267 23.9687 53.9578 23.9687 53.4688V37.7969C23.9687 37.5524 24.0658 37.3179 24.2387 37.145C24.4116 36.9722 24.6461 36.875 24.8906 36.875H34.1093C34.3538 36.875 34.5883 36.9722 34.7612 37.145C34.934 37.3179 35.0312 37.5524 35.0312 37.7969V53.4688C35.0312 53.9578 35.2254 54.4267 35.5712 54.7725C35.917 55.1183 36.3859 55.3125 36.8749 55.3125H47.9443C48.9223 55.3125 49.8603 54.924 50.5518 54.2325C51.2433 53.5409 51.6318 52.603 51.6318 51.625V32.6044C51.632 32.4798 51.6068 32.3563 51.5579 32.2417C51.509 32.127 51.4373 32.0234 51.3472 31.9372L30.1406 11.671Z" fill="#C2C2C2"/>
<path d="M56.5698 28.1345L47.9502 19.8883V7.375C47.9502 6.88601 47.756 6.41704 47.4102 6.07127C47.0644 5.7255 46.5955 5.53125 46.1065 5.53125H40.5752C40.0862 5.53125 39.6173 5.7255 39.2715 6.07127C38.9257 6.41704 38.7315 6.88601 38.7315 7.375V11.0625L32.0571 4.68082C31.4325 4.04934 30.5037 3.6875 29.5 3.6875C28.4998 3.6875 27.5733 4.04934 26.9488 4.68197L2.4384 28.1322C1.72165 28.8236 1.63176 29.9609 2.28399 30.71C2.44777 30.899 2.64832 31.0528 2.87341 31.1619C3.09851 31.271 3.34345 31.3331 3.59333 31.3446C3.84321 31.356 4.0928 31.3164 4.32691 31.2283C4.56103 31.1403 4.77477 31.0054 4.95512 30.8321L28.8663 7.98344C29.0378 7.81932 29.2661 7.72772 29.5035 7.72772C29.7409 7.72772 29.9692 7.81932 30.1407 7.98344L54.0542 30.8321C54.4064 31.1699 54.8783 31.3543 55.3662 31.3448C55.8542 31.3353 56.3185 31.1327 56.6573 30.7814C57.3649 30.0485 57.3061 28.8386 56.5698 28.1345Z" fill="#C2C2C2"/>
</svg>
