<svg width="59" height="59" viewBox="0 0 59 59" fill="none" xmlns="http://www.w3.org/2000/svg">
<path d="M38.3316 7.44184C36.0891 5.02076 32.9571 3.6875 29.5 3.6875C26.0246 3.6875 22.8821 5.0127 20.65 7.41879C18.3938 9.85139 17.2944 13.1575 17.5525 16.7274C18.0642 23.7705 23.4237 29.5 29.5 29.5C35.5764 29.5 40.9267 23.7717 41.4464 16.7297C41.708 13.192 40.6017 9.89287 38.3316 7.44184ZM49.7813 55.3125H9.2188C8.68787 55.3194 8.16208 55.2079 7.67969 54.986C7.19729 54.7641 6.77042 54.4375 6.43013 54.0299C5.6811 53.1346 5.37919 51.9119 5.60274 50.6755C6.57532 45.2802 9.6106 40.748 14.3813 37.5664C18.6196 34.742 23.9884 33.1875 29.5 33.1875C35.0117 33.1875 40.3805 34.7432 44.6188 37.5664C49.3895 40.7469 52.4248 45.279 53.3974 50.6743C53.6209 51.9108 53.319 53.1334 52.57 54.0288C52.2298 54.4366 51.803 54.7634 51.3206 54.9855C50.8382 55.2076 50.3123 55.3193 49.7813 55.3125Z" fill="#C2C2C2"/>
</svg>
