<svg width="54" height="53" viewBox="0 0 54 53" fill="none" xmlns="http://www.w3.org/2000/svg">
<path d="M45.75 4.37501H43.875V2.58312C43.875 1.59095 43.0992 0.73937 42.0902 0.68982C41.8367 0.677808 41.5834 0.716536 41.3455 0.803655C41.1077 0.890774 40.8903 1.02447 40.7065 1.19664C40.5228 1.36882 40.3765 1.57588 40.2765 1.80529C40.1766 2.0347 40.125 2.28168 40.125 2.53126V4.37501H13.875V2.58312C13.875 1.59095 13.0992 0.73937 12.0902 0.68982C11.8367 0.677808 11.5834 0.716536 11.3455 0.803655C11.1077 0.890774 10.8903 1.02447 10.7065 1.19664C10.5228 1.36882 10.3765 1.57588 10.2765 1.80529C10.1766 2.0347 10.125 2.28168 10.125 2.53126V4.37501H8.25C6.26088 4.37501 4.35322 5.15202 2.9467 6.5351C1.54018 7.91818 0.75 9.79404 0.75 11.75V13.1328C0.75 13.2551 0.799386 13.3723 0.887294 13.4588C0.975201 13.5452 1.09443 13.5938 1.21875 13.5938H52.7812C52.9056 13.5938 53.0248 13.5452 53.1127 13.4588C53.2006 13.3723 53.25 13.2551 53.25 13.1328V11.75C53.25 9.79404 52.4598 7.91818 51.0533 6.5351C49.6468 5.15202 47.7391 4.37501 45.75 4.37501ZM52.7812 17.2813H1.21875C1.09443 17.2813 0.975201 17.3298 0.887294 17.4163C0.799386 17.5027 0.75 17.62 0.75 17.7422V44.9375C0.75 46.8935 1.54018 48.7693 2.9467 50.1524C4.35322 51.5355 6.26088 52.3125 8.25 52.3125H45.75C47.7391 52.3125 49.6468 51.5355 51.0533 50.1524C52.4598 48.7693 53.25 46.8935 53.25 44.9375V17.7422C53.25 17.62 53.2006 17.5027 53.1127 17.4163C53.0248 17.3298 52.9056 17.2813 52.7812 17.2813ZM25.0758 43.2205C23.6496 44.3279 21.7066 44.9375 19.6031 44.9375C16.3371 44.9375 13.9219 42.8449 12.8461 41.0541C12.5928 40.633 12.52 40.1301 12.6437 39.6562C12.7675 39.1823 13.0776 38.7761 13.5059 38.527C13.9341 38.2779 14.4455 38.2064 14.9275 38.328C15.4094 38.4497 15.8225 38.7547 16.0758 39.1758C16.2023 39.3878 17.3824 41.25 19.6031 41.25C21.5555 41.25 23.8359 40.41 23.8359 38.0442C23.8359 37.324 23.693 36.3214 23.0156 35.6381C22.0148 34.631 20.3496 34.1781 19.4871 34.1781C18.9898 34.1781 18.5129 33.9838 18.1613 33.6381C17.8097 33.2923 17.6121 32.8233 17.6121 32.3343C17.6121 31.8453 17.8097 31.3764 18.1613 31.0306C18.5129 30.6848 18.9898 30.4906 19.4871 30.4906C20.0555 30.4906 21.5273 30.191 22.4496 29.2633C22.6991 29.022 22.8961 28.7333 23.0284 28.4147C23.1608 28.0962 23.2258 27.7544 23.2195 27.4104C23.2195 24.7335 19.8645 24.6563 19.4824 24.6563C17.4504 24.6563 16.6934 25.8789 16.6617 25.9308C16.5399 26.1455 16.3756 26.3342 16.1786 26.4856C15.9815 26.6369 15.7556 26.7481 15.5142 26.8123C15.2728 26.8766 15.0208 26.8927 14.773 26.8598C14.5252 26.8268 14.2866 26.7455 14.0712 26.6205C13.8558 26.4955 13.6681 26.3294 13.5189 26.132C13.3698 25.9346 13.2624 25.7098 13.2029 25.4709C13.1435 25.2321 13.1332 24.9839 13.1728 24.7411C13.2123 24.4983 13.3009 24.2657 13.4332 24.057C14.3285 22.559 16.3887 20.9688 19.4824 20.9688C21.409 20.9688 23.2043 21.5184 24.5367 22.5152C26.1059 23.6906 26.9695 25.4283 26.9695 27.4104C26.9748 28.2321 26.8145 29.0467 26.498 29.8072C26.1814 30.5676 25.7147 31.2589 25.125 31.8411C24.9902 31.9771 24.8484 32.1039 24.7043 32.2272C25.0563 32.4772 25.3864 32.7559 25.691 33.0603C26.9285 34.3048 27.5824 36.0276 27.5824 38.0442C27.5859 40.1253 26.6941 41.9633 25.0758 43.2205ZM40.125 42.6328C40.125 43.1218 39.9275 43.5908 39.5758 43.9366C39.2242 44.2823 38.7473 44.4766 38.25 44.4766C37.7527 44.4766 37.2758 44.2823 36.9242 43.9366C36.5725 43.5908 36.375 43.1218 36.375 42.6328V26.5334L33.7371 28.4452C33.5389 28.5889 33.3138 28.6929 33.0748 28.7511C32.8357 28.8094 32.5873 28.8207 32.3437 28.7845C32.1002 28.7484 31.8663 28.6654 31.6554 28.5403C31.4445 28.4153 31.2606 28.2506 31.1145 28.0557C30.9683 27.8608 30.8625 27.6395 30.8033 27.4044C30.7441 27.1693 30.7325 26.925 30.7693 26.6855C30.8061 26.4461 30.8905 26.2161 31.0177 26.0086C31.1449 25.8012 31.3123 25.6205 31.5105 25.4767L36.5988 21.7892C36.921 21.5557 37.3107 21.4298 37.7109 21.4297H38.25C38.7473 21.4297 39.2242 21.624 39.5758 21.9697C39.9275 22.3155 40.125 22.7845 40.125 23.2735V42.6328Z" fill="#C2C2C2"/>
</svg>
