<svg width="56" height="45" viewBox="0 0 56 45" fill="none" xmlns="http://www.w3.org/2000/svg">
<path d="M45.7277 3.75001H27.5415C26.9891 3.75179 26.4487 3.58863 25.9888 3.28126L22.7456 1.10275C21.6717 0.381357 20.4082 -0.00252721 19.1163 1.25209e-05H10.263C8.53088 0.00187372 6.87027 0.693876 5.6455 1.92418C4.42073 3.15448 3.73184 4.8226 3.72999 6.56251V9.37501H52.2607C52.2607 5.75626 49.3302 3.75001 45.7277 3.75001ZM47.5651 45H8.42556C6.71137 44.998 5.06662 44.3194 3.84602 43.1104C2.62542 41.9013 1.92677 40.2589 1.90075 38.5371L0.0178549 19.2316V19.1988C-0.0438044 18.4251 0.054634 17.6469 0.306976 16.9132C0.559318 16.1795 0.960102 15.5062 1.48411 14.9357C2.00811 14.3652 2.644 13.9098 3.35175 13.5982C4.0595 13.2865 4.8238 13.1254 5.59655 13.125H50.4058C51.1783 13.1258 51.9424 13.2871 52.6499 13.5989C53.3573 13.9106 53.9929 14.3661 54.5167 14.9365C55.0404 15.507 55.441 16.1802 55.6932 16.9137C55.9454 17.6472 56.0438 18.4253 55.9821 19.1988V19.2316L54.0899 38.5371C54.0639 40.2589 53.3653 41.9013 52.1447 43.1104C50.9241 44.3194 49.2793 44.998 47.5651 45Z" fill="#C2C2C2"/>
</svg>
